<?xml version="1.0" encoding="utf-8"?>
<!-- Generator: Adobe Illustrator 21.0.2, SVG Export Plug-In . SVG Version: 6.00 Build 0)  -->
<svg version="1.1" id="Layer_1" xmlns="http://www.w3.org/2000/svg" xmlns:xlink="http://www.w3.org/1999/xlink" x="0px" y="0px"
	 viewBox="0 0 2800 500" style="enable-background:new 0 0 2800 500;" xml:space="preserve">
<style type="text/css">
	.st0{fill:#FFFFFF;}
	.st1{fill:#118CCC;}
</style>
<g>
	<g>
		<path class="st0" d="M805.1,273.6c-0.7,8-1.8,16.1-3.2,24.2c-1.4,8.1-3.3,16-5.6,23.8c-2.3,7.8-5.1,14.8-8.2,21.1
			c-4.3,9.2-10,17.1-16.8,23.6c-6.9,6.5-14.9,11.9-23.8,16.2c-6.6,3.2-13.4,5.6-20.5,7.4c-7.1,1.7-14.2,2.9-21.4,3.7
			c-7.2,0.7-14.5,1-22,1.1c-7.2,0-14.4,0-21.6,0H539.7l0-288.1l122.2,0c11.8,0,23.8,0.6,36.1,1.7c12.2,1.2,23.9,3.7,35,7.5
			c11.1,3.9,21.3,9.4,30.7,16.4c9.3,7,17,16.4,23.1,27.9c6.6,13,11.5,27.8,14.7,44.5c3.2,16.7,4.7,32.2,4.7,46.7
			C806.2,258,805.8,265.5,805.1,273.6z M734.7,215.3c-2.5-12.5-6.6-23.4-12.3-32.8c-6.9-11.1-15.7-18.1-26.3-21.1
			c-10.7-3.1-22-4.6-34.1-4.6l-61,0l0,187.3l60.9,0c6.9,0,14.6-0.7,23.1-2.2c8.5-1.5,15.8-3.8,21.9-7c6.3-3.5,11.5-8.7,15.6-15.5
			c4-6.8,7.2-14.3,9.5-22.3c2.3-8,4-16.1,5-24.4c1-8.3,1.5-15.7,1.5-22.1C738.3,239.6,737.1,227.9,734.7,215.3z M912.8,394.2
			c-7.8,0-15.7-0.1-23.6-0.2c-7.9-0.1-15.6-1.2-23.1-3.2c-13.3-3.5-23.4-10.9-30.3-22.2c-6.9-11.4-10.4-23.5-10.4-36.5
			c0-10.1,2.1-20,6.3-29.8c4.2-9.8,10.5-17.9,18.9-24.2c3.8-2.9,8.3-5.1,13.4-6.7c5.2-1.6,10.7-2.7,16.3-3.5
			c5.6-0.7,11.2-1.1,16.7-1.3c5.5-0.1,10.6-0.2,15.2-0.2l71.1,0l0-3.5c0-7.5-1-13.5-3-17.9c-2-4.5-5-7.9-8.9-10.4
			c-3.9-2.4-8.6-4-14.1-4.8c-5.5-0.7-11.5-1.1-18.1-1.1l-97.7,0l0-44.9l97.7,0c4,0,8,0.1,11.9,0.2c3.9,0.2,7.8,0.2,11.9,0.2
			c17.8,0.6,33.1,4.3,45.7,11.2c12.6,6.9,21.8,19.4,27.5,37.6c2.3,7.2,3.7,14.2,4.1,21.1c0.4,6.9,0.6,14.1,0.6,21.6l0,118.3H912.8z
			 M983.3,311.4l-76.7,0c-6.1,0-11.2,1.6-15.4,4.7c-4.2,3.1-6.3,8-6.3,14.6c0,4.6,0.9,8.1,2.8,10.5c1.9,2.4,4.3,4.2,7.4,5.4
			c3,1.1,6.4,1.9,10.2,2.2c3.7,0.3,7.4,0.4,10.8,0.4l67.2,0L983.3,311.4z M1168.7,394.5c-14.4,0-27.3-2.5-38.7-7.6
			c-11.5-5-20-14.8-25.4-29.2c-2.3-6.9-3.7-13.9-4.3-21c-0.6-7.1-0.9-14.2-0.9-21.4v-86.5l-36.8,0l0-45l36.7,0l0-77.4l57.6,0l0,77.4
			h53.6l0,45l-53.6,0v76.6c0,4.6,0.1,10.4,0.2,17.3c0.2,7,1.7,12.4,4.6,16.5c2.6,3.5,5.9,6,9.9,7.6c4,1.6,8.3,2.6,13,3
			c4.6,0.4,9.2,0.5,13.8,0.2c4.6-0.3,8.6-0.4,12.1-0.4v45L1168.7,394.5z M1314.2,394.2c-7.8,0-15.7,0-23.6-0.2
			c-7.9-0.1-15.7-1.2-23.2-3.2c-13.3-3.4-23.4-10.8-30.3-22.2c-6.9-11.3-10.4-23.5-10.4-36.5c0-10.1,2.1-20,6.3-29.8
			c4.2-9.8,10.5-17.9,18.9-24.2c3.8-2.9,8.2-5.1,13.4-6.7c5.2-1.6,10.6-2.7,16.3-3.5c5.6-0.7,11.2-1.1,16.7-1.3
			c5.5-0.1,10.6-0.2,15.2-0.2l71.2,0v-3.5c0-7.5-1-13.5-3-17.9c-2-4.5-5-7.9-8.9-10.4c-3.9-2.4-8.6-4.1-14-4.8
			c-5.5-0.7-11.5-1.1-18.2-1.1l-97.7,0l0-44.9h97.7c4,0,8,0.1,11.9,0.2c3.9,0.1,7.8,0.2,11.9,0.2c17.8,0.6,33.1,4.3,45.7,11.2
			c12.6,7,21.8,19.5,27.5,37.6c2.3,7.2,3.6,14.3,4.1,21.2c0.5,6.9,0.7,14.1,0.6,21.6l0,118.3H1314.2z M1384.6,311.4h-76.8
			c-6.1,0-11.2,1.6-15.4,4.7c-4.2,3.2-6.3,8-6.3,14.6c0,4.6,0.9,8.1,2.8,10.5c1.9,2.4,4.3,4.2,7.4,5.4c3,1.2,6.4,1.9,10.2,2.2
			c3.8,0.3,7.4,0.4,10.9,0.4l67.2,0L1384.6,311.4z"/>
		<path class="st1" d="M1681,394.5c-2.3-6.6-3.8-13.4-4.3-20.3c-0.6-6.9-1.3-13.8-2.2-20.7c-1.5-13.2-3.8-24.3-7.1-33
			c-3.3-8.8-8-15.8-14-20.9c-6.1-5.2-13.7-8.8-22.9-11c-9.2-2.1-20.5-3.2-33.7-3.2h-49.3l0,109.2h-61.2V106.4l140.9,0
			c10.6,0,21.5,0.4,32.6,1.1c11.1,0.7,21.7,2.5,31.7,5.4c17,4.9,30.3,14.1,39.8,27.7c9.5,13.5,14.3,28.9,14.3,46.2
			c0,19.9-4.2,37.2-12.6,52.1c-8.3,14.8-22.5,25.4-42.3,31.7c6.3,2.3,11.7,4.5,16.2,6.7c4.5,2.2,8.4,4.8,11.9,7.8
			c3.5,3,6.5,6.6,9.1,10.8c2.6,4.2,5.1,9.4,7.7,15.8c4.1,9.5,6.3,19.3,6.7,29.4c0.4,10.1,1.2,20.2,2.4,30.2
			c0.9,7.5,2.6,15.3,5.2,23.3H1681z M1674.2,175.2c-2.3-4.9-5.4-8.6-9.3-11.3c-3.9-2.7-8.5-4.5-14-5.5c-5.5-1.1-11.4-1.6-17.7-1.6
			l-85.8,0l0,78l85.8,0c14.1,0,25-2.9,32.8-8.6c7.8-5.8,11.7-16.5,11.6-32.1C1677.6,186.4,1676.5,180.1,1674.2,175.2z M1980.5,337.2
			c-5.6,13.1-13.4,24.2-23.3,33.1c-9.9,8.9-21.7,15.7-35.4,20.3c-13.7,4.6-28.7,6.9-45.1,6.9c-35.1,0-62.3-9.6-81.6-28.7
			c-19.3-19.2-28.9-46.4-28.9-81.6c0-16.4,2.7-31.3,8.2-44.5c5.5-13.3,13.1-24.4,22.9-33.5c9.8-9.1,21.5-16.1,35.2-21
			c13.6-4.9,28.5-7.3,44.7-7.3c35.1,0,62.5,9.6,82.2,29c19.7,19.3,29.6,46.7,29.6,82.2C1988.9,309,1986.1,324.1,1980.5,337.2z
			 M1926.9,264.2c-1.7-7.7-4.6-14.4-8.6-20c-4-5.7-9.4-10.2-16.1-13.4c-6.7-3.3-14.9-4.9-24.7-4.9c-10.3,0-18.8,1.7-25.5,5.1
			c-6.7,3.4-12,8-15.9,13.8c-3.9,5.8-6.6,12.7-8.2,20.5c-1.6,7.8-2.4,16.3-2.4,25.4c0,8.8,0.9,17,2.8,24.5c1.9,7.5,4.9,14,9,19.6
			c4.2,5.6,9.6,9.9,16.3,13c6.7,3.1,15,4.7,24.6,4.7c9.7,0,17.9-1.7,24.5-5.1c6.6-3.4,11.9-7.9,15.9-13.6c4-5.7,6.8-12.5,8.4-20.3
			c1.6-7.8,2.4-16,2.4-24.5C1929.5,280.2,1928.6,271.9,1926.9,264.2z M2224.8,339.2c-7.2,16.1-19,29.4-35.4,39.8
			c-11.8,7.5-23.7,12-35.8,13.5c-12.1,1.4-24.9,2.1-38.4,2.1l-94,0V106.4h57.6l0,77.4l51.3,0c33.1,0,58.9,8.7,77.5,26.2
			c18.6,17.5,27.9,42.9,27.9,76.4C2235.6,305.4,2232,323,2224.8,339.2z M2164.6,244.4c-8.9-10.4-23-15.6-42.5-15.6l-43.2,0l0,120.7
			h43.2c18.7,0,32.6-5.8,41.9-17.5c9.3-11.7,14-26.3,14-43.9C2177.9,269.4,2173.5,254.8,2164.6,244.4z M2468.3,337.2
			c-5.6,13.1-13.4,24.2-23.3,33.1c-9.9,9-21.7,15.7-35.4,20.3c-13.7,4.6-28.7,6.9-45.1,6.9c-35.1,0-62.3-9.6-81.6-28.8
			c-19.3-19.2-28.9-46.3-28.9-81.5c0-16.4,2.7-31.3,8.2-44.5c5.5-13.3,13.1-24.4,22.9-33.5c9.8-9.1,21.5-16.1,35.1-21
			c13.7-4.9,28.6-7.3,44.7-7.4c35.1,0,62.5,9.7,82.2,29c19.7,19.3,29.5,46.7,29.5,82.2C2476.7,309,2473.9,324.1,2468.3,337.2z
			 M2414.7,264.3c-1.7-7.7-4.6-14.4-8.6-20.1c-4-5.7-9.4-10.1-16.1-13.4c-6.7-3.3-15-4.9-24.7-4.9c-10.3,0-18.8,1.7-25.5,5.1
			c-6.7,3.4-12,8-15.9,13.9c-3.9,5.8-6.6,12.7-8.2,20.5c-1.6,7.8-2.3,16.3-2.3,25.4c0,8.8,0.9,17,2.8,24.5c1.9,7.5,4.9,14.1,9,19.6
			c4.2,5.6,9.6,9.9,16.3,13c6.7,3.1,14.9,4.7,24.7,4.7c9.7,0,17.9-1.7,24.4-5.1c6.6-3.4,11.9-7.9,15.9-13.6c4-5.7,6.8-12.5,8.4-20.3
			c1.5-7.8,2.3-16,2.3-24.5C2417.2,280.2,2416.4,271.9,2414.7,264.3z M2593.4,394.5c-14.4,0-27.3-2.5-38.8-7.6
			c-11.5-5-19.9-14.7-25.4-29.2c-2.3-6.9-3.8-13.9-4.3-20.9c-0.6-7.1-0.9-14.2-0.9-21.4l0-86.5h-36.8v-45l36.7,0l0-77.4l57.6,0v77.4
			l53.6,0l0,45l-53.6,0v76.5c0,4.6,0.1,10.4,0.2,17.3c0.2,6.9,1.7,12.4,4.5,16.4c2.6,3.5,5.9,6,10,7.6c4,1.6,8.3,2.6,13,3
			c4.6,0.5,9.2,0.5,13.8,0.2c4.6-0.3,8.6-0.4,12.1-0.4l0,45H2593.4z"/>
	</g>
	<g>
		<path class="st0" d="M330.5,180c-6.8,0-12.2,8.2-12.2,18.2s5.5,18.2,12.2,18.2c6.8,0,12.2-8.2,12.2-18.2S337.2,180,330.5,180z
			 M246.3,180c-6.8,0-12.2,8.2-12.2,18.2s5.5,18.2,12.2,18.2s12.2-8.2,12.2-18.2S253,180,246.3,180z M409.5,157.3l-1-0.2v-22
			c0-17.7-14.5-32.1-32.1-32.1h-176c-17.7,0-32.1,14.5-32.1,32.1v22l-1,0.2c-5.1,0.8-9.1,5.5-9.1,10.7v35.9c0,5.2,4,9.8,9.1,10.7
			l1,0.2v36.1c0,17.7,14.5,32.1,32.1,32.1h50.3v8.5h-4.3l-15.8,6.4v2.3h-5.9v6.2c-12.2,0.6-22,10.8-22,23.2v7h-2.4
			c-2.9,2.9-4.6,4.6-7.5,7.5v20.7l7.5,7.5h15.7l3.2-3.2v-10.6l6.2,0v-17.1c0-2.6-2.1-4.8-4.8-4.8h-2.9v-7c0-4.1,3-7.5,7-8.1v8.3h6.8
			v24.9l8.3,9.4v12.9c-6.4,0-13.3,0.6-22.4,8.5v12.9h67.4V373h8.2v25.1h67.4v-12.9c-9.1-7.9-16.1-8.5-22.4-8.5v-12.9l8.6-9.4v-24.9
			h6.5v-8.3c4,0.5,7.1,4,7.1,8.1v7H357c-2.6,0-4.8,2.1-4.8,4.8v17.1l6.2,0V369l3.2,3.2h15.7c2.9-2.9,4.6-4.6,7.5-7.5v-20.7l-7.5-7.5
			H375v-7c0-12.4-9.8-22.6-22.1-23.2v-6.2h-5.9v-2.3l-15.8-6.4h-4.3v-8.5h49.6c17.7,0,32.1-14.5,32.1-32.1v-36.1l1-0.2
			c5.1-0.8,9.1-5.5,9.1-10.7V168C418.6,162.8,414.6,158.1,409.5,157.3z M400.2,243.4c0,14.1-11.6,25.7-25.7,25.7H202.3
			c-14.1,0-25.7-11.6-25.7-25.7V140.6c0-14.1,11.6-25.7,25.7-25.7h172.1c14.1,0,25.7,11.6,25.7,25.7V243.4z"/>
	</g>
</g>
</svg>
