<?xml version="1.0" encoding="iso-8859-1"?>
<!-- Generator: Adobe Illustrator 18.1.1, SVG Export Plug-In . SVG Version: 6.00 Build 0)  -->
<svg version="1.1" id="Capa_1" xmlns="http://www.w3.org/2000/svg" xmlns:xlink="http://www.w3.org/1999/xlink" x="0px" y="0px"
	 viewBox="0 0 75.721 75.721" style="enable-background:new 0 0 75.721 75.721;" xml:space="preserve">
<g>
	<g>
		<polygon style="fill:#010002;" points="59.334,16.404 59.302,16.386 16.42,16.386 16.388,16.404 16.388,59.311 16.42,59.332 
			59.302,59.332 59.334,59.311 		"/>
		<g>
			<path style="fill:#010002;" d="M65.475,23.959h7.68c1.417,0,2.566-1.149,2.566-2.559s-1.145-2.562-2.566-2.562h-7.68
				c-1.417,0-2.562,1.145-2.562,2.559C62.913,22.81,64.058,23.959,65.475,23.959z"/>
			<path style="fill:#010002;" d="M73.152,29.806h-7.68c-1.414,0-2.559,1.152-2.559,2.562c0,1.41,1.145,2.562,2.562,2.562h7.68
				c1.417,0,2.566-1.149,2.566-2.562C75.721,30.955,74.573,29.806,73.152,29.806z"/>
			<path style="fill:#010002;" d="M73.152,40.783h-7.68c-1.417,0-2.562,1.149-2.562,2.562c0,1.417,1.145,2.566,2.562,2.566h7.68
				c1.417,0,2.566-1.149,2.566-2.566C75.718,41.935,74.573,40.783,73.152,40.783z"/>
			<path style="fill:#010002;" d="M73.152,51.763h-7.68c-1.414,0-2.559,1.145-2.559,2.559s1.145,2.562,2.562,2.562h7.68
				c1.417,0,2.566-1.149,2.566-2.562S74.573,51.763,73.152,51.763z"/>
		</g>
		<g>
			<path style="fill:#010002;" d="M23.957,10.248v-7.68c0-1.417-1.145-2.562-2.559-2.562c-1.417,0-2.566,1.145-2.566,2.562v7.68
				c0,1.417,1.149,2.562,2.566,2.562C22.812,12.807,23.957,11.662,23.957,10.248z"/>
			<path style="fill:#010002;" d="M29.812,2.564v7.68c0,1.417,1.149,2.562,2.562,2.562s2.559-1.145,2.559-2.562v-7.68
				c0-1.417-1.145-2.562-2.559-2.562S29.812,1.151,29.812,2.564z"/>
			<path style="fill:#010002;" d="M40.788,2.564v7.68c0,1.417,1.145,2.562,2.559,2.562s2.566-1.145,2.566-2.562v-7.68
				c0-1.417-1.152-2.562-2.566-2.562C41.933,0.002,40.788,1.151,40.788,2.564z"/>
			<path style="fill:#010002;" d="M51.764,2.564v7.68c0,1.417,1.145,2.562,2.559,2.562c1.417,0,2.566-1.145,2.566-2.562v-7.68
				c0-1.417-1.149-2.562-2.566-2.562C52.91-0.002,51.764,1.151,51.764,2.564z"/>
		</g>
		<g>
			<path style="fill:#010002;" d="M23.957,73.157v-7.68c0-1.417-1.145-2.566-2.559-2.566c-1.417,0-2.566,1.145-2.566,2.566v7.68
				c0,1.417,1.149,2.559,2.566,2.559C22.812,75.716,23.957,74.571,23.957,73.157z"/>
			<path style="fill:#010002;" d="M29.812,65.473v7.68c0,1.417,1.149,2.566,2.562,2.566s2.559-1.145,2.559-2.566v-7.68
				c0-1.417-1.145-2.562-2.559-2.562S29.812,64.056,29.812,65.473z"/>
			<path style="fill:#010002;" d="M40.788,65.473v7.68c0,1.417,1.145,2.566,2.559,2.566s2.566-1.145,2.566-2.566v-7.68
				c0-1.417-1.152-2.562-2.566-2.562C41.933,62.911,40.788,64.056,40.788,65.473z"/>
			<path style="fill:#010002;" d="M51.764,65.473v7.68c0,1.417,1.145,2.566,2.559,2.566c1.417,0,2.566-1.145,2.566-2.566v-7.68
				c-0.004-1.417-1.152-2.562-2.566-2.562S51.764,64.056,51.764,65.473z"/>
		</g>
		<g>
			<path style="fill:#010002;" d="M2.57,23.959h7.68c1.414,0,2.559-1.152,2.559-2.562s-1.145-2.562-2.562-2.562h-7.68
				C1.149,18.834,0,19.983,0,21.396C0,22.81,1.149,23.959,2.57,23.959z"/>
			<path style="fill:#010002;" d="M10.246,29.806h-7.68C1.149,29.806,0,30.955,0,32.365c0,1.41,1.145,2.562,2.566,2.562h7.68
				c1.417,0,2.562-1.149,2.562-2.562C12.809,30.952,11.663,29.806,10.246,29.806z"/>
			<path style="fill:#010002;" d="M10.246,40.783h-7.68C1.149,40.783,0,41.932,0,43.345c0,1.417,1.145,2.566,2.566,2.566h7.68
				c1.417,0,2.562-1.149,2.562-2.566C12.809,41.935,11.663,40.783,10.246,40.783z"/>
			<path style="fill:#010002;" d="M10.246,51.763h-7.68C1.149,51.763,0,52.908,0,54.322s1.145,2.562,2.566,2.562h7.68
				c1.417-0.004,2.562-1.152,2.562-2.562S11.663,51.763,10.246,51.763z"/>
		</g>
	</g>
</g>
<g>
</g>
<g>
</g>
<g>
</g>
<g>
</g>
<g>
</g>
<g>
</g>
<g>
</g>
<g>
</g>
<g>
</g>
<g>
</g>
<g>
</g>
<g>
</g>
<g>
</g>
<g>
</g>
<g>
</g>
</svg>
